# xmcd CD database file
#
# Track frame offsets:
#	150
#	13222
#	37440
#	53455
#	69742
#	84417
#	100902
#	119255
#
# Disc length: 1764 seconds
#
# Revision: 7
# Processed by: cddbd v1.5.2PL0 Copyright (c) Steve Scherf et al.
# Submitted via: CDex 1.70beta2
#
DISCID=6906e208
DTITLE=美少女戦士セーラームーン - 美少女戦士セーラームーンSupers テーマソングコレクション
DYEAR=1995
DGENRE=Anime
TTITLE0=ムーンライト伝説 (ムーンリップス)
TTITLE1=私たちになりたくて (藤谷美和子)
TTITLE2=“らしく”いきましょ (Meu)
TTITLE3=タキシード・ミラージュ (三石琴乃 and 富沢美智恵 and 久川綾 and 篠原恵美 and 深見梨加)
TTITLE4=乙女のポリシー (石田よう子)
TTITLE5=HEART MOVING (高松美砂絵)
TTITLE6=プリンセス・ムーン (橋本潮)
TTITLE7=ムーンライト伝説 (DALI)
EXTD=YEAR: 1995
EXTT0=
EXTT1=
EXTT2=
EXTT3=
EXTT4=
EXTT5=
EXTT6=
EXTT7=
PLAYORDER=
